<svg width="99" height="21" viewBox="0 0 99 21" fill="none" xmlns="http://www.w3.org/2000/svg">
<path d="M98.7238 5.05492V7.81681H90.014V5.05492H98.7238ZM92.1643 1.425H95.7351V15.6487C95.7351 16.1288 95.8074 16.497 95.9521 16.7535C96.1033 17.0034 96.3006 17.1744 96.5439 17.2664C96.7872 17.3585 97.0568 17.4045 97.3527 17.4045C97.5763 17.4045 97.7802 17.3881 97.9643 17.3552C98.155 17.3223 98.2997 17.2927 98.3983 17.2664L99 20.0579C98.8093 20.1237 98.5364 20.196 98.1813 20.2749C97.8328 20.3538 97.4053 20.3999 96.899 20.413C96.0047 20.4393 95.1991 20.3045 94.4823 20.0086C93.7656 19.7061 93.1967 19.2392 92.7759 18.6079C92.3616 17.9766 92.1577 17.1875 92.1643 16.2406V1.425Z" fill="black"/>
<path d="M79.6602 11.3244V20.2019H76.0895V5.05098H79.5024V7.62545H79.6799C80.0285 6.77716 80.5841 6.10313 81.3469 5.60336C82.1163 5.10358 83.0665 4.8537 84.1976 4.8537C85.2432 4.8537 86.1539 5.07728 86.9299 5.52444C87.7124 5.97161 88.3174 6.61934 88.7449 7.46763C89.1789 8.31593 89.3926 9.34506 89.386 10.555V20.2019H85.8153V11.1074C85.8153 10.0947 85.5522 9.30232 85.0262 8.73021C84.5067 8.15811 83.7866 7.87205 82.866 7.87205C82.2413 7.87205 81.6856 8.01015 81.199 8.28634C80.7189 8.55595 80.3408 8.94722 80.0646 9.46014C79.795 9.97306 79.6602 10.5945 79.6602 11.3244Z" fill="black"/>
<path d="M68.178 20.4978C66.6589 20.4978 65.347 20.1822 64.2423 19.5509C63.1441 18.913 62.2991 18.0121 61.7073 16.8482C61.1154 15.6777 60.8195 14.3 60.8195 12.7152C60.8195 11.1567 61.1154 9.78894 61.7073 8.61185C62.3057 7.42818 63.1408 6.50755 64.2127 5.84995C65.2846 5.18578 66.5439 4.8537 67.9906 4.8537C68.9243 4.8537 69.8055 5.00495 70.6341 5.30744C71.4692 5.60335 72.2057 6.06367 72.8436 6.68838C73.488 7.3131 73.9944 8.10879 74.3626 9.07545C74.7309 10.0355 74.915 11.1797 74.915 12.5081V13.603H62.4964V11.1962H71.4922C71.4857 10.5123 71.3377 9.90402 71.0484 9.37137C70.759 8.83214 70.3546 8.40799 69.8351 8.09892C69.3222 7.78985 68.7238 7.63532 68.0399 7.63532C67.31 7.63532 66.6688 7.81287 66.1164 8.16797C65.564 8.51649 65.1333 8.97681 64.8243 9.54892C64.5218 10.1144 64.3672 10.7359 64.3606 11.4132V13.5142C64.3606 14.3954 64.5218 15.1516 64.844 15.7829C65.1662 16.4076 65.6167 16.8877 66.1953 17.223C66.774 17.5518 67.4513 17.7162 68.2273 17.7162C68.7468 17.7162 69.217 17.6439 69.6378 17.4992C70.0587 17.348 70.4237 17.1277 70.7327 16.8383C71.0418 16.549 71.2752 16.1906 71.4331 15.7632L74.7671 16.138C74.5566 17.0192 74.1555 17.7886 73.5637 18.4462C72.9784 19.0972 72.2288 19.6035 71.3147 19.9652C70.4006 20.3203 69.3551 20.4978 68.178 20.4978Z" fill="black"/>
<path d="M45.6363 20.2013V0H53.2118C54.7637 0 56.0658 0.269613 57.1179 0.80884C58.1766 1.34807 58.9756 2.1043 59.5148 3.07754C60.0607 4.0442 60.3336 5.17197 60.3336 6.46085C60.3336 7.75631 60.0574 8.8808 59.505 9.83431C58.9592 10.7812 58.1536 11.5145 57.0883 12.034C56.023 12.5469 54.7144 12.8033 53.1625 12.8033H47.7669V9.76526H52.6693C53.5768 9.76526 54.3199 9.64032 54.8985 9.39043C55.4772 9.13397 55.9047 8.76243 56.1808 8.27581C56.4636 7.78262 56.605 7.17763 56.605 6.46085C56.605 5.74408 56.4636 5.13252 56.1808 4.62617C55.8981 4.11325 55.4674 3.72527 54.8887 3.46223C54.31 3.19262 53.5636 3.05781 52.6496 3.05781H49.2958V20.2013H45.6363ZM56.0723 11.0476L61.0733 20.2013H56.9897L52.0775 11.0476H56.0723Z" fill="black"/>
<path d="M37.5729 20.4978C36.0539 20.4978 34.742 20.1822 33.6372 19.5509C32.539 18.913 31.694 18.0121 31.1022 16.8482C30.5104 15.6777 30.2144 14.3 30.2144 12.7152C30.2144 11.1567 30.5104 9.78894 31.1022 8.61185C31.7006 7.42818 32.5357 6.50755 33.6076 5.84995C34.6795 5.18578 35.9388 4.8537 37.3855 4.8537C38.3193 4.8537 39.2005 5.00495 40.029 5.30744C40.8642 5.60335 41.6007 6.06367 42.2385 6.68838C42.883 7.3131 43.3893 8.10879 43.7576 9.07545C44.1258 10.0355 44.31 11.1797 44.31 12.5081V13.603H31.8913V11.1962H40.8872C40.8806 10.5123 40.7326 9.90402 40.4433 9.37137C40.154 8.83214 39.7495 8.40799 39.23 8.09892C38.7171 7.78985 38.1187 7.63532 37.4348 7.63532C36.7049 7.63532 36.0637 7.81287 35.5114 8.16797C34.959 8.51649 34.5283 8.97681 34.2192 9.54892C33.9167 10.1144 33.7622 10.7359 33.7556 11.4132V13.5142C33.7556 14.3954 33.9167 15.1516 34.2389 15.7829C34.5611 16.4076 35.0116 16.8877 35.5903 17.223C36.169 17.5518 36.8463 17.7162 37.6222 17.7162C38.1417 17.7162 38.6119 17.6439 39.0328 17.4992C39.4536 17.348 39.8186 17.1277 40.1277 16.8383C40.4367 16.549 40.6702 16.1906 40.828 15.7632L44.162 16.138C43.9516 17.0192 43.5504 17.7886 42.9586 18.4462C42.3733 19.0972 41.6237 19.6035 40.7096 19.9652C39.7956 20.3203 38.75 20.4978 37.5729 20.4978Z" fill="black"/>
<path d="M22.954 20.4978C21.4349 20.4978 20.123 20.1822 19.0183 19.5509C17.9201 18.913 17.0751 18.0121 16.4833 16.8482C15.8914 15.6777 15.5955 14.3 15.5955 12.7152C15.5955 11.1567 15.8914 9.78894 16.4833 8.61185C17.0817 7.42818 17.9168 6.50755 18.9887 5.84995C20.0606 5.18578 21.3199 4.8537 22.7666 4.8537C23.7003 4.8537 24.5815 5.00495 25.4101 5.30744C26.2452 5.60335 26.9817 6.06367 27.6196 6.68838C28.264 7.3131 28.7704 8.10879 29.1386 9.07545C29.5069 10.0355 29.691 11.1797 29.691 12.5081V13.603H17.2724V11.1962H26.2682C26.2617 10.5123 26.1137 9.90402 25.8244 9.37137C25.535 8.83214 25.1306 8.40799 24.6111 8.09892C24.0982 7.78985 23.4998 7.63532 22.8159 7.63532C22.0859 7.63532 21.4448 7.81287 20.8924 8.16797C20.34 8.51649 19.9093 8.97681 19.6002 9.54892C19.2978 10.1144 19.1432 10.7359 19.1366 11.4132V13.5142C19.1366 14.3954 19.2978 15.1516 19.62 15.7829C19.9422 16.4076 20.3926 16.8877 20.9713 17.223C21.55 17.5518 22.2273 17.7162 23.0033 17.7162C23.5228 17.7162 23.993 17.6439 24.4138 17.4992C24.8347 17.348 25.1997 17.1277 25.5087 16.8383C25.8178 16.549 26.0512 16.1906 26.2091 15.7632L29.5431 16.138C29.3326 17.0192 28.9315 17.7886 28.3397 18.4462C27.7544 19.0972 27.0047 19.6035 26.0907 19.9652C25.1766 20.3203 24.1311 20.4978 22.954 20.4978Z" fill="black"/>
<path d="M0 20.2013V0H7.7333C9.19316 0 10.4064 0.230158 11.3731 0.690473C12.3463 1.14421 13.073 1.76564 13.553 2.55475C14.0396 3.34386 14.2829 4.23819 14.2829 5.23773C14.2829 6.05972 14.1251 6.76335 13.8095 7.34861C13.4938 7.92729 13.0697 8.39747 12.537 8.75914C12.0044 9.12082 11.4092 9.38057 10.7517 9.53839V9.73567C11.4684 9.77513 12.1556 9.99542 12.8132 10.3966C13.4774 10.7911 14.0199 11.3501 14.4407 12.0734C14.8616 12.7968 15.072 13.6714 15.072 14.6972C15.072 15.7428 14.8189 16.6831 14.3125 17.5183C13.8062 18.3469 13.0434 19.0012 12.0241 19.4812C11.0048 19.9612 9.72252 20.2013 8.17717 20.2013H0ZM3.65951 17.1435H7.5952C8.92354 17.1435 9.88034 16.8903 10.4656 16.3839C11.0574 15.871 11.3533 15.2134 11.3533 14.4112C11.3533 13.8127 11.2054 13.2735 10.9095 12.7935C10.6136 12.3069 10.1927 11.9255 9.6469 11.6493C9.10109 11.3665 8.45008 11.2251 7.69384 11.2251H3.65951V17.1435ZM3.65951 8.59146H7.27956C7.91085 8.59146 8.47967 8.47638 8.98601 8.24622C9.49236 8.00949 9.8902 7.6774 10.1795 7.24997C10.4755 6.81596 10.6234 6.30303 10.6234 5.7112C10.6234 4.92866 10.3472 4.28422 9.79485 3.77787C9.24905 3.27153 8.43692 3.01835 7.35847 3.01835H3.65951V8.59146Z" fill="black"/>
</svg>
